<svg version="1.1" id="Layer_1" xmlns="http://www.w3.org/2000/svg" xmlns:xlink="http://www.w3.org/1999/xlink" x="0px" y="0px"
	 width="100%" viewBox="0 0 640 624" enable-background="new 0 0 640 624" xml:space="preserve">
<path fill="#000000" opacity="1.000000" stroke="none" 
	d="
M564.238770,305.828857 
	C561.209412,325.390900 556.504211,344.015198 548.659607,361.791870 
	C535.131226,392.448853 516.770081,419.770020 492.671631,443.114197 
	C489.551117,446.137024 489.141602,448.256378 492.051758,451.794952 
	C501.090424,462.785553 500.918091,462.875763 491.287415,472.723633 
	C486.981750,477.126373 482.690918,481.556335 478.631561,486.182953 
	C475.770660,489.443665 472.843018,489.840607 469.525452,487.269348 
	C465.316467,484.007263 461.175598,480.654755 457.067230,477.266296 
	C454.735962,475.343506 452.613068,475.121796 449.836914,476.707794 
	C422.990021,492.045105 393.997223,501.536133 363.837006,507.639038 
	C352.112610,510.011444 340.180237,510.716736 328.227325,511.500885 
	C297.000519,513.549561 266.817932,508.033051 237.524475,498.361847 
	C207.722794,488.522858 180.700516,472.865692 156.804047,452.439850 
	C111.897018,414.054962 84.765846,365.141235 75.154160,307.152008 
	C69.560898,273.406708 72.074730,239.668549 82.099052,206.568222 
	C88.164742,186.539291 95.634827,167.262665 106.459473,149.363327 
	C135.238541,101.775063 175.000671,67.101433 226.980713,46.623127 
	C250.666122,37.291908 275.030945,31.562883 300.421783,29.490707 
	C353.272766,25.177477 403.183777,35.324741 448.237854,63.011547 
	C506.427704,98.770599 543.893616,150.828110 560.616638,217.208008 
	C566.789124,241.709015 567.988403,266.789978 565.473450,291.987427 
	C565.028137,296.449280 564.677490,300.920563 564.238770,305.828857 
M141.659988,386.845703 
	C152.495117,402.197327 165.644089,415.306793 179.947754,427.444122 
	C212.771469,455.296478 250.498947,472.020477 293.168030,476.710999 
	C328.490845,480.593964 363.182373,477.263092 396.894196,464.879517 
	C453.240234,444.181488 491.326874,404.556000 515.764221,350.911896 
	C525.696472,329.109009 530.572266,305.879944 532.031799,281.849182 
	C533.606079,255.929733 531.005554,230.620331 522.752075,206.027832 
	C509.974701,167.955612 487.783051,136.175491 456.979279,110.546692 
	C426.639343,85.303810 391.486969,71.206467 352.580017,64.914490 
	C315.361633,58.895599 279.432373,63.401970 244.414429,75.706367 
	C207.062408,88.830902 176.177383,111.710876 151.762634,142.823944 
	C119.096169,184.452652 103.903885,231.926086 107.113815,284.831177 
	C109.344368,321.594299 120.228371,355.690308 141.659988,386.845703 
M106.236626,187.790665 
	C103.751587,187.568115 102.794899,189.450928 101.897072,191.161026 
	C100.607658,193.617020 99.135948,196.216858 100.907768,199.004425 
	C101.620384,200.125580 103.053734,199.921448 104.032639,199.235626 
	C106.843323,197.266479 108.927177,194.748276 108.456413,191.057587 
	C108.324593,190.024139 107.382706,189.094009 106.236626,187.790665 
z"/>
<path fill="#000000" opacity="1.000000" stroke="none" 
	d="
M501.998047,556.001221 
	C492.940552,546.897827 484.304047,537.888428 474.858093,529.669373 
	C465.160309,521.231140 465.006683,512.058228 474.636017,503.457764 
	C482.564148,496.376740 491.225128,490.121246 499.462646,483.379333 
	C502.935699,480.536835 506.040802,477.244751 509.514008,474.402496 
	C516.479004,468.702637 524.319092,469.077789 530.455444,475.583557 
	C551.028137,497.394775 572.746155,518.070984 593.638672,539.563171 
	C600.652405,546.778137 601.243652,555.785522 599.028503,564.726868 
	C594.802429,581.785156 580.589294,598.412842 557.997131,597.209351 
	C549.024902,596.731384 540.834290,593.820801 534.172913,587.200012 
	C523.661560,576.752747 512.903137,566.554016 501.998047,556.001221 
z"/>
<path fill="#000000" opacity="1.000000" stroke="none" 
	d="
M285.848511,148.727783 
	C328.636383,125.179459 382.343597,151.995224 388.007050,200.082214 
	C392.373169,237.153931 368.214478,273.010468 332.746521,279.818909 
	C296.041168,286.864899 258.088959,261.383606 252.476639,223.458755 
	C248.686783,197.849060 254.779892,175.991211 273.598175,157.953827 
	C277.223724,154.478714 281.390472,151.712494 285.848511,148.727783 
M306.415497,182.994781 
	C306.090973,183.759293 305.682739,184.499771 305.455444,185.292175 
	C303.899536,190.716370 304.818085,195.637695 309.199677,199.346039 
	C313.608398,203.077377 318.851959,203.777359 324.197723,201.726135 
	C329.896820,199.539322 334.549255,195.866592 335.462799,189.471100 
	C336.385193,183.013596 330.401245,175.894501 323.070007,173.824417 
	C317.159668,172.155533 310.149933,175.805954 306.415497,182.994781 
M325.775635,248.388702 
	C332.454865,245.712570 335.811157,237.563721 330.985229,233.477264 
	C326.296326,229.506790 325.865906,224.726044 324.458923,219.756287 
	C323.712524,217.119965 323.868958,212.645813 320.237701,212.791718 
	C316.869781,212.927017 316.765625,217.111145 316.174652,219.973709 
	C315.047119,225.435089 314.467743,230.764572 309.435638,234.853729 
	C305.523621,238.032684 307.568085,244.664124 312.489716,247.272568 
	C316.459595,249.376541 320.667847,249.842087 325.775635,248.388702 
M277.302490,209.898697 
	C277.511200,216.438110 283.614410,221.771606 289.009430,219.865555 
	C293.115509,218.414917 296.320435,215.803925 296.661377,210.989990 
	C296.960419,206.767410 295.360565,203.529785 291.428345,201.621445 
	C286.856598,199.402756 283.423279,201.613678 280.204987,204.527435 
	C278.833069,205.769562 277.727356,207.231949 277.302490,209.898697 
M343.032562,211.809418 
	C344.638580,216.209976 347.678406,219.096344 352.371124,219.540588 
	C355.672119,219.853088 358.479004,218.436203 360.248108,215.389877 
	C362.555756,211.416122 361.747711,207.623077 359.143555,204.306671 
	C357.060822,201.654343 354.124390,199.452637 350.550629,200.798737 
	C345.984253,202.518692 342.615753,205.594940 343.032562,211.809418 
z"/>
<path fill="#000000" opacity="1.000000" stroke="none" 
	d="
M402.143097,303.786926 
	C412.021179,309.224915 420.290466,316.123474 428.039185,323.755310 
	C442.726318,338.221008 448.501099,356.328033 450.494385,376.270844 
	C451.343231,384.763550 451.058014,393.223206 451.396240,401.693451 
	C451.515381,404.676849 450.464996,406.248657 447.534790,407.043579 
	C423.296722,413.618622 398.999695,419.839752 373.919525,422.428162 
	C358.541901,424.015228 343.197296,425.921997 327.836365,427.672028 
	C327.203766,427.744080 326.555786,427.681244 325.689819,427.681244 
	C324.608887,423.624847 326.055847,420.033722 327.188477,416.498016 
	C333.785004,395.905518 340.788605,375.438263 347.067963,354.750641 
	C354.067322,331.691071 362.268036,308.992218 368.025696,285.556427 
	C368.132782,285.120483 368.560913,284.763458 369.199127,283.860504 
	C380.091095,290.456512 390.956299,297.036316 402.143097,303.786926 
z"/>
<path fill="#000000" opacity="1.000000" stroke="none" 
	d="
M262.203796,289.192322 
	C263.836670,287.735382 265.072357,286.303345 266.607391,285.356598 
	C268.970856,283.898926 270.729706,284.451813 271.224152,287.482605 
	C273.591003,301.990173 278.871277,315.687134 283.114227,329.662659 
	C291.519043,357.346802 301.368469,384.577423 309.291412,412.414856 
	C310.635864,417.138702 313.035797,421.626617 313.029358,427.057739 
	C304.981628,428.039307 297.240112,426.962006 289.540649,426.097412 
	C263.750183,423.201233 238.172379,418.941833 212.847153,413.267426 
	C205.392365,411.597076 198.082504,409.287628 190.677444,407.382935 
	C188.605804,406.850067 187.545120,405.978394 187.613144,403.651184 
	C188.138016,385.695007 188.115158,367.697449 194.575333,350.496460 
	C200.933823,333.566223 212.787674,321.185852 227.416565,311.392120 
	C238.741547,303.810333 251.178314,297.935608 262.203796,289.192322 
z"/>
<path fill="#000000" opacity="1.000000" stroke="none" 
	d="
M329.380371,364.266571 
	C325.397217,374.241180 323.856384,384.531830 320.438446,394.265472 
	C320.075836,395.298065 320.407623,396.697876 318.820160,397.064636 
	C317.202606,396.645813 317.162048,395.147095 316.847809,393.940552 
	C314.581726,385.240051 312.277710,376.541382 308.960907,368.177277 
	C305.885925,360.422852 306.495972,352.460052 307.241272,344.507538 
	C307.694305,339.673798 307.680206,334.862793 307.619141,330.034821 
	C307.538513,323.658508 306.168945,317.871216 300.747437,313.669739 
	C297.065643,310.816498 297.828125,307.302490 299.906769,303.865417 
	C302.237183,300.012085 303.548706,294.573242 309.785492,295.818237 
	C315.922791,297.043396 322.059235,296.539581 328.205170,296.597565 
	C332.673309,296.639740 340.394501,304.893433 340.153748,309.332489 
	C340.093414,310.445160 339.576996,311.327301 338.682892,311.794312 
	C328.478882,317.123566 330.003693,326.354431 330.666626,335.391205 
	C331.189270,342.515686 331.669098,349.658234 331.705536,356.795105 
	C331.717621,359.159088 330.290131,361.530457 329.380371,364.266571 
z"/>
<path fill="#000000" opacity="1.000000" stroke="none" 
	d="
M416.011719,207.670776 
	C426.163971,207.475876 435.816925,207.828491 445.481140,207.397736 
	C449.021545,207.239929 450.747711,206.045135 452.504364,203.249527 
	C460.721252,190.172775 479.433716,188.844345 488.798889,200.521820 
	C496.549805,210.186462 494.437531,224.673599 484.151031,232.399231 
	C474.421600,239.706482 460.340302,237.222916 453.693481,226.548187 
	C451.160736,222.480606 448.432434,220.945404 443.669189,221.218246 
	C432.041443,221.884354 420.383820,222.042908 408.736542,222.339966 
	C406.787445,222.389664 404.745148,222.774139 403.014587,221.752869 
	C402.828461,221.494507 402.651337,221.363403 402.653839,221.235779 
	C402.961884,205.384476 400.482910,207.954498 416.011719,207.670776 
z"/>
<path fill="#000000" opacity="1.000000" stroke="none" 
	d="
M147.753326,210.098206 
	C150.000717,200.155045 156.138657,194.336639 165.609879,193.192459 
	C174.583206,192.108429 182.326859,195.564713 187.696274,203.145157 
	C189.527161,205.729935 191.590637,206.713318 194.758362,206.750824 
	C207.245117,206.898682 219.727203,207.430573 232.213974,207.597580 
	C235.785080,207.645355 237.493607,208.775467 237.296326,212.506516 
	C237.131882,215.616531 237.262619,218.742157 237.262619,221.965546 
	C231.230484,221.965546 225.090042,222.365051 219.022598,221.870010 
	C210.358414,221.163101 201.704987,221.526352 193.050079,221.307556 
	C190.692352,221.247955 189.127609,221.886154 187.865082,224.209152 
	C182.201279,234.630478 172.269379,239.061996 162.603500,235.780731 
	C152.196457,232.247864 146.344879,222.322495 147.753326,210.098206 
z"/>
<path fill="#000000" opacity="1.000000" stroke="none" 
	d="
M395.580872,241.308731 
	C398.102325,232.368393 399.194092,231.928558 405.767548,238.008224 
	C412.350281,244.096512 419.926086,249.143600 425.388489,256.413177 
	C426.953308,258.495758 428.590302,258.361755 430.530762,257.057861 
	C438.170715,251.924179 450.091827,255.036697 455.663422,261.130554 
	C462.053101,268.119202 463.514038,279.771423 458.880127,287.631348 
	C453.827545,296.201569 444.336121,300.450348 435.112762,298.270782 
	C425.568451,296.015350 417.004425,283.129211 419.202148,273.637054 
	C420.233795,269.181152 418.975525,266.926147 414.923096,265.130768 
	C406.535278,261.414642 400.591644,254.411392 393.860565,248.514023 
	C390.679138,245.726700 395.434387,244.096268 395.580872,241.308731 
z"/>
<path fill="#000000" opacity="1.000000" stroke="none" 
	d="
M224.728912,249.706940 
	C229.230331,246.170532 232.651978,242.101273 235.972946,237.925385 
	C237.087799,236.523529 238.178375,234.632477 240.301926,235.088989 
	C242.437912,235.548172 242.562195,237.808945 243.087936,239.478928 
	C246.300674,249.683884 246.259689,249.681473 237.699310,256.510010 
	C235.228394,258.481018 232.860275,260.580688 230.394241,262.558044 
	C225.053574,266.840332 221.111053,270.870483 221.825317,279.253326 
	C222.771011,290.352325 211.201675,299.983978 199.785431,299.830170 
	C188.949127,299.684174 178.768402,289.308655 178.792709,278.435791 
	C178.819855,266.298401 188.134521,256.064484 199.520081,255.723984 
	C203.068939,255.617828 206.539963,256.428101 209.662704,257.943878 
	C212.681641,259.409271 214.785706,259.193268 217.076981,256.647034 
	C219.290039,254.187759 221.980972,252.158524 224.728912,249.706940 
z"/>
<path fill="#000000" opacity="1.000000" stroke="none" 
	d="
M243.414902,174.584793 
	C244.001999,175.406143 244.733429,176.098068 244.602020,176.523407 
	C243.113312,181.341431 241.492523,186.118668 239.749176,191.383804 
	C232.628143,187.768326 227.470871,182.620361 222.231506,177.590652 
	C221.154068,176.556320 220.152725,175.423782 219.237915,174.242355 
	C215.921326,169.959076 212.956848,168.264374 206.938309,171.234741 
	C196.459503,176.406464 185.904251,171.498718 180.970505,160.779572 
	C176.107651,150.214417 180.578888,137.337250 189.857132,131.570908 
	C202.758606,123.552795 222.070618,135.741745 221.155411,151.112885 
	C220.901733,155.373428 222.564621,157.711227 225.793823,160.111649 
	C231.791428,164.569946 237.392395,169.561829 243.414902,174.584793 
z"/>
<path fill="#000000" opacity="1.000000" stroke="none" 
	d="
M433.314758,172.261002 
	C428.448853,168.675446 424.901276,170.245346 421.280365,173.862778 
	C415.990082,179.147995 410.503510,184.255753 404.856903,189.158493 
	C401.153107,192.374435 400.218414,191.914948 398.859375,187.275314 
	C395.610474,176.183716 395.644409,176.225845 404.813171,168.839447 
	C409.211792,165.295914 413.403503,161.495743 417.794403,157.942154 
	C419.384888,156.654984 419.240814,155.283859 419.041504,153.526810 
	C417.862915,143.136658 422.856842,134.816620 432.141693,131.437424 
	C441.724609,127.949730 452.611298,131.501663 458.047180,139.889435 
	C463.410858,148.165817 462.181274,158.294861 454.937439,165.941956 
	C449.068542,172.137589 442.102173,174.596680 433.314758,172.261002 
z"/>
</svg>